<svg id="Capa_1" enable-background="new 0 0 512 512" height="512" viewBox="0 0 512 512" width="512" xmlns="http://www.w3.org/2000/svg"><g><path d="m378.204 372.965h37.312v53.724h-37.312z" fill="#c5d3dd" transform="matrix(.707 -.707 .707 .707 -166.482 397.729)"/><path d="m393.445 366.652h19.456v53.724h-19.456z" fill="#b6c4cf" transform="matrix(.707 -.707 .707 .707 -160.169 400.344)"/><path d="m499.425 502.391c-12.813 12.813-33.586 12.813-46.398 0l-55.927-55.927c-5.07-5.07-5.07-13.29 0-18.359l28.039-28.039c5.07-5.07 13.29-5.07 18.359 0l55.927 55.927c12.812 12.812 12.812 33.585 0 46.398z" fill="#596c76"/><path d="m499.429 502.394c-4.466 4.455-9.878 7.367-15.599 8.715 10.619-12.883 9.899-31.97-2.15-44.019l-55.924-55.934c-2.223-2.223-5.073-3.468-7.974-3.735l7.357-7.357c5.073-5.073 13.294-5.073 18.357 0l55.934 55.924c12.81 12.821 12.81 33.585-.001 46.406z" fill="#465a61"/><path d="m422.17 209.602c0 115.76-93.842 209.602-209.602 209.602-49.56 0-95.102-17.2-130.983-45.957-1.288-1.032-.683-5.702-1.945-6.764-45.73-38.449-72.618-92.456-72.618-156.878 0-50.398 16.26-94.013 45.9-130.167.992-1.21-.531-5.041.488-6.229 38.441-44.816 95.484-73.209 159.158-73.209 43.882 0 84.614 13.485 118.278 36.537 1.267.867 1.366 6.607 2.612 7.501 45.122 32.372 74.101 76.626 82.551 134.05.27 1.832 4.431 4.406 4.653 6.254.996 8.28 1.508 16.71 1.508 25.26z" fill="#d8ecfe"/><path d="m422.165 209.604c0 115.758-93.841 209.599-209.599 209.599-34.275 0-66.615-8.221-95.179-22.812 23.172 8.839 48.33 13.675 74.61 13.675 115.758 0 209.599-93.851 209.599-209.609 0-81.473-46.488-152.09-114.379-186.776 15.51 5.914 30.137 13.618 43.629 22.857.264.181.394 1.379.657 1.561 47.02 32.519 78.57 82.445 86.928 141.63.202 1.432 2.054 3.172 2.227 4.613.995 8.282 1.507 16.712 1.507 25.262z" fill="#b3dafe"/><path d="m263.433 244.75c0 9.707-3.933 18.499-10.296 24.862s-15.144 10.296-24.851 10.296h-98.164c-9.812 0-17.773 7.961-17.773 17.773 0 4.911 1.988 9.36 5.206 12.578s7.667 5.206 12.568 5.206h26.671c15.965 0 28.9 12.936 28.9 28.89 0 7.982-3.239 15.197-8.466 20.424s-12.452 8.466-20.434 8.466h-75.207c-47.936-38.408-78.624-97.439-78.624-163.642 0-52.09 19.004-99.731 50.449-136.393h133.627c17.794 0 32.224 14.429 32.224 32.234 0 8.897-3.607 16.953-9.444 22.779-5.826 5.837-13.882 9.444-22.779 9.444-9.276 0-17.668 3.755-23.747 9.833-6.079 6.068-9.833 14.461-9.833 23.736v2.398c0 19.866 16.101 35.968 35.967 35.968h38.86c19.413.001 35.146 15.734 35.146 35.148z" fill="#c1e9af"/><g fill="#ade194"><path d="m112.346 297.683c0 4.908 1.986 9.353 5.207 12.574s7.666 5.207 12.574 5.207h-24.355c-4.898 0-9.353-1.986-12.564-5.207-3.222-3.221-5.208-7.666-5.208-12.574 0-9.816 7.954-17.77 17.77-17.77h24.355c-9.815 0-17.779 7.954-17.779 17.77z"/><path d="m185.69 344.357c0 7.984-3.241 15.198-8.468 20.425-5.217 5.227-12.45 8.458-20.425 8.458h-24.355c7.985 0 15.208-3.231 20.435-8.458s8.468-12.44 8.468-20.425c0-15.959-12.934-28.893-28.903-28.893h24.355c15.959 0 28.893 12.933 28.893 28.893z"/><path d="m189.425 209.604h-24.345c-19.869 0-35.972-16.103-35.972-35.972v-2.397c0-9.271 3.756-17.667 9.837-23.738 6.071-6.071 14.467-9.827 23.748-9.827 8.89 0 16.947-3.612 22.771-9.446 5.844-5.824 9.446-13.881 9.446-22.781 0-17.801-14.426-32.237-32.217-32.237h24.345c17.791 0 32.227 14.436 32.227 32.237 0 8.901-3.612 16.957-9.446 22.781-5.824 5.834-13.881 9.446-22.781 9.446-9.271 0-17.667 3.756-23.748 9.827s-9.827 14.467-9.827 23.738v2.397c0 19.869 16.093 35.972 35.962 35.972z"/><path d="m263.438 244.754c0 9.703-3.941 18.501-10.3 24.86s-15.146 10.3-24.849 10.3h-24.355c9.713 0 18.49-3.941 24.849-10.3 6.369-6.359 10.3-15.157 10.3-24.86 0-19.417-15.733-35.149-35.149-35.149h24.355c19.406-.001 35.149 15.732 35.149 35.149z"/></g><path d="m420.659 184.342h-132.775c-6.752 0-12.862-2.734-17.29-7.162s-7.162-10.538-7.162-17.29c0-13.504 10.948-24.452 24.452-24.452h30.036c6.752 0 12.862-2.734 17.29-7.151 4.428-4.428 7.162-10.538 7.162-17.29 0-13.504-10.948-24.452-24.452-24.452h-13.882c-6.91 0-13.157-2.797-17.679-7.32-4.533-4.522-7.33-10.78-7.33-17.679 0-13.809 11.2-25.009 25.009-25.009h26.807c48.588 33.266 82.452 86.46 89.814 147.805z" fill="#c1e9af"/><path d="m420.663 184.343h-19.684c-4.538-59.772-34.161-112.547-78.355-147.81h8.221c48.587 33.267 82.45 86.464 89.818 147.81z" fill="#ade194"/><g><path d="m82.342 157.39h-14.446c-4.143 0-7.5-3.357-7.5-7.5s3.357-7.5 7.5-7.5h14.446c4.143 0 7.5 3.357 7.5 7.5s-3.358 7.5-7.5 7.5z" fill="#97da7b"/></g><g><path d="m106.789 191.842h-14.446c-4.143 0-7.5-3.357-7.5-7.5s3.357-7.5 7.5-7.5h14.446c4.143 0 7.5 3.357 7.5 7.5s-3.357 7.5-7.5 7.5z" fill="#97da7b"/></g><g><path d="m72.343 259.624h-14.447c-4.143 0-7.5-3.357-7.5-7.5s3.357-7.5 7.5-7.5h14.446c4.143 0 7.5 3.357 7.5 7.5s-3.357 7.5-7.499 7.5z" fill="#97da7b"/></g><g><path d="m227.015 44.038h-14.446c-4.143 0-7.5-3.357-7.5-7.5s3.357-7.5 7.5-7.5h14.446c4.143 0 7.5 3.357 7.5 7.5s-3.358 7.5-7.5 7.5z" fill="#8ac9fe"/></g><circle cx="312.355" cy="315.321" fill="#8d9ca8" r="98.496"/><path d="m382.005 384.969c-31.702 31.702-79.652 37.279-117.065 16.7 33.894 10.68 72.418 2.583 99.284-24.284 38.473-38.473 38.473-100.828 0-139.3-6.76-6.76-14.261-12.337-22.246-16.71 14.642 4.599 28.42 12.697 40.026 24.304 38.463 38.463 38.463 100.828.001 139.29z" fill="#7a8c98"/><circle cx="312.355" cy="315.321" fill="#e8edf2" r="66.024"/><path d="m359.038 362.003c-22.431 22.431-56.994 25.353-82.574 8.746 22.256 6.287 47.178.669 64.701-16.844 25.775-25.786 25.775-67.592 0-93.378-3.354-3.354-6.966-6.266-10.794-8.746 10.495 2.974 20.404 8.592 28.667 16.854 25.786 25.786 25.786 67.593 0 93.368z" fill="#d9e7ec"/></g></svg>